<?xml version="1.0" encoding="UTF-8"?>
<svg width="20px" height="20px" viewBox="0 0 20 20" version="1.1" xmlns="http://www.w3.org/2000/svg" xmlns:xlink="http://www.w3.org/1999/xlink">
    <!-- Generator: Sketch 52.5 (67469) - http://www.bohemiancoding.com/sketch -->
    <title>Icons / Social / Google / Normal</title>
    <desc>Created with Sketch.</desc>
    <defs>
        <path d="M19.7674419,8.18181818 L10.2325581,8.18181818 L10.2325581,12.0454545 L15.7209302,12.0454545 C15.2093023,14.5 13.0697674,15.9090909 10.2325581,15.9090909 C6.88372093,15.9090909 4.18604651,13.2727273 4.18604651,10 C4.18604651,6.72727273 6.88372093,4.09090909 10.2325581,4.09090909 C11.6744186,4.09090909 12.9767442,4.59090909 14,5.40909091 L16.9767442,2.5 C15.1627907,0.954545455 12.8372093,0 10.2325581,0 C4.55813953,0 0,4.45454545 0,10 C0,15.5454545 4.55813953,20 10.2325581,20 C15.3488372,20 20,16.3636364 20,10 C20,9.40909091 19.9069767,8.77272727 19.7674419,8.18181818 Z" id="path-1"></path>
        <path d="M19.7674419,8.18181818 L10.2325581,8.18181818 L10.2325581,12.0454545 L15.7209302,12.0454545 C15.2093023,14.5 13.0697674,15.9090909 10.2325581,15.9090909 C6.88372093,15.9090909 4.18604651,13.2727273 4.18604651,10 C4.18604651,6.72727273 6.88372093,4.09090909 10.2325581,4.09090909 C11.6744186,4.09090909 12.9767442,4.59090909 14,5.40909091 L16.9767442,2.5 C15.1627907,0.954545455 12.8372093,0 10.2325581,0 C4.55813953,0 0,4.45454545 0,10 C0,15.5454545 4.55813953,20 10.2325581,20 C15.3488372,20 20,16.3636364 20,10 C20,9.40909091 19.9069767,8.77272727 19.7674419,8.18181818 Z" id="path-3"></path>
        <path d="M19.7674419,8.18181818 L10.2325581,8.18181818 L10.2325581,12.0454545 L15.7209302,12.0454545 C15.2093023,14.5 13.0697674,15.9090909 10.2325581,15.9090909 C6.88372093,15.9090909 4.18604651,13.2727273 4.18604651,10 C4.18604651,6.72727273 6.88372093,4.09090909 10.2325581,4.09090909 C11.6744186,4.09090909 12.9767442,4.59090909 14,5.40909091 L16.9767442,2.5 C15.1627907,0.954545455 12.8372093,0 10.2325581,0 C4.55813953,0 0,4.45454545 0,10 C0,15.5454545 4.55813953,20 10.2325581,20 C15.3488372,20 20,16.3636364 20,10 C20,9.40909091 19.9069767,8.77272727 19.7674419,8.18181818 Z" id="path-5"></path>
        <path d="M19.7674419,8.18181818 L10.2325581,8.18181818 L10.2325581,12.0454545 L15.7209302,12.0454545 C15.2093023,14.5 13.0697674,15.9090909 10.2325581,15.9090909 C6.88372093,15.9090909 4.18604651,13.2727273 4.18604651,10 C4.18604651,6.72727273 6.88372093,4.09090909 10.2325581,4.09090909 C11.6744186,4.09090909 12.9767442,4.59090909 14,5.40909091 L16.9767442,2.5 C15.1627907,0.954545455 12.8372093,0 10.2325581,0 C4.55813953,0 0,4.45454545 0,10 C0,15.5454545 4.55813953,20 10.2325581,20 C15.3488372,20 20,16.3636364 20,10 C20,9.40909091 19.9069767,8.77272727 19.7674419,8.18181818 Z" id="path-7"></path>
    </defs>
    <g id="Icons-/-Social-/-Google-/-Normal" stroke="none" stroke-width="1" fill="none" fill-rule="evenodd">
        <g id="Clipped">
            <g>
                <mask id="mask-2" fill="white">
                    <use xlink:href="#path-1"></use>
                </mask>
                <g id="a"></g>
                <polygon id="Path" fill="#FBBC05" mask="url(#mask-2)" points="-0.930232558 15.9090909 -0.930232558 4.09090909 6.97674419 10"></polygon>
            </g>
            <g>
                <mask id="mask-4" fill="white">
                    <use xlink:href="#path-3"></use>
                </mask>
                <g id="a"></g>
                <polygon id="Path" fill="#EA4335" mask="url(#mask-4)" points="-0.930232558 4.09090909 6.97674419 10 10.2325581 7.22727273 21.3953488 5.45454545 21.3953488 -0.909090909 -0.930232558 -0.909090909"></polygon>
            </g>
            <g>
                <mask id="mask-6" fill="white">
                    <use xlink:href="#path-5"></use>
                </mask>
                <g id="a"></g>
                <polygon id="Path" fill="#34A853" mask="url(#mask-6)" points="-0.930232558 15.9090909 13.0232558 5.45454545 16.6976744 5.90909091 21.3953488 -0.909090909 21.3953488 20.9090909 -0.930232558 20.9090909"></polygon>
            </g>
            <g>
                <mask id="mask-8" fill="white">
                    <use xlink:href="#path-7"></use>
                </mask>
                <g id="a"></g>
                <polygon id="Path" fill="#4285F4" mask="url(#mask-8)" points="21.3953488 20.9090909 6.97674419 10 5.11627907 8.63636364 21.3953488 4.09090909"></polygon>
            </g>
        </g>
    </g>
</svg>