<?xml version="1.0" encoding="UTF-8"?>
<svg width="24px" height="24px" viewBox="0 0 24 24" version="1.1" xmlns="http://www.w3.org/2000/svg" xmlns:xlink="http://www.w3.org/1999/xlink">
    <!-- Generator: Sketch 52.5 (67469) - http://www.bohemiancoding.com/sketch -->
    <title>Icons / Thumbs-Up / Normal</title>
    <desc>Created with Sketch.</desc>
    <g id="Icons-/-Thumbs-Up-/-Normal" stroke="none" stroke-width="1" fill="none" fill-rule="evenodd">
        <g>
            <rect id="Bounds" x="0" y="0" width="24" height="24"></rect>
            <path d="M20.4929697,11.0972827 C20.5987524,9.84029239 19.4826115,9.4734991 19.0397465,9.4734991 C17.3230442,9.47312577 15.6058086,9.47368576 13.8889286,9.47200579 C14.1360513,8.90734945 14.4373986,7.41012348 14.0578254,5.34730786 C13.9079517,4.5317761 13.4496193,3.98933269 12.8657698,4.00015915 C12.3953479,4.00874566 11.9460825,4.3895387 11.8989692,4.86441002 C11.8474113,5.38650714 11.7252722,6.12998689 11.6097113,6.63845759 C11.2399163,8.26392121 9.26204632,10.4099886 8.01132136,11.158695 L8.01132136,19.0991631 C8.85971646,19.6025939 9.77975934,19.778804 10.7623829,19.7592044 C12.3148108,19.7280316 16.7493286,19.7552845 17.5529216,19.7496846 C18.1216592,19.7457646 18.6887968,19.4609165 18.9615206,18.740023 C19.3341602,17.756121 18.3735821,17.26389 18.3735821,17.26389 C18.3735821,17.26389 19.4251866,17.3183957 19.6655534,16.3279605 C19.9121427,15.3113924 18.9446309,14.9091331 18.9446309,14.9091331 C19.5988836,14.8340944 20.0177476,14.655271 20.176155,14.036109 C20.362297,13.3068157 19.9155206,12.7591457 19.2082876,12.4421915 C19.3154926,12.4311784 20.3958985,12.247875 20.4929697,11.0972827 Z M6.92238172,9.89685136 L4.03335819,9.89685136 C3.73876668,9.89685136 3.5,10.1475401 3.5,10.4568411 L3.5,19.4400102 C3.5,19.7493112 3.73876668,20 4.03335819,20 L6.92238172,20 C7.21697323,20 7.45573991,19.7493112 7.45573991,19.4400102 L7.45573991,10.4568411 C7.45573991,10.1477268 7.21715102,9.89685136 6.92238172,9.89685136 Z" id="Icon" fill="#BABDC3"></path>
        </g>
    </g>
</svg>