<?xml version="1.0" encoding="UTF-8"?>
<svg width="24px" height="24px" viewBox="0 0 24 24" version="1.1" xmlns="http://www.w3.org/2000/svg" xmlns:xlink="http://www.w3.org/1999/xlink">
    <!-- Generator: Sketch 52.5 (67469) - http://www.bohemiancoding.com/sketch -->
    <title>Icons / Magnify-glass / Normal</title>
    <desc>Created with Sketch.</desc>
    <g id="Icons-/-Magnify-glass-/-Normal" stroke="none" stroke-width="1" fill="none" fill-rule="evenodd">
        <g>
            <rect id="Bounds" x="0" y="0" width="24" height="24"></rect>
            <path d="M21.6404172,19.9048656 L16.6817574,14.9461438 C17.675756,13.5976844 18.2646441,11.9325548 18.2646441,10.1325348 C18.2646441,5.64826276 14.6162047,2 10.1322109,2 C5.64799493,2 2,5.64826276 2,10.1325348 C2,14.6165846 5.64821715,18.2650696 10.1324331,18.2650696 C11.9326529,18.2650696 13.597095,17.6761742 14.945982,16.6821631 L19.9044196,21.6406627 C20.38353,22.1197791 21.1608623,22.1197791 21.6404172,21.6406627 C22.1199721,21.1615462 22.1197498,20.3842043 21.6404172,19.9048656 Z M10.1324331,15.8099312 C7.00177083,15.8099312 4.4551077,13.263014 4.4551077,10.132757 C4.4551077,7.00183335 7.00177083,4.45536062 10.1324331,4.45536062 C13.2628732,4.45536062 15.8097586,7.00183335 15.8097586,10.132757 C15.8099808,13.263014 13.2630955,15.8099312 10.1324331,15.8099312 Z" id="Icon" fill="#BABDC3"></path>
        </g>
    </g>
</svg>