<?xml version="1.0" encoding="UTF-8"?>
<svg width="24px" height="24px" viewBox="0 0 24 24" version="1.1" xmlns="http://www.w3.org/2000/svg" xmlns:xlink="http://www.w3.org/1999/xlink">
    <!-- Generator: Sketch 52.5 (67469) - http://www.bohemiancoding.com/sketch -->
    <title>Icons / Minus / Stroke / Normal</title>
    <desc>Created with Sketch.</desc>
    <g id="Icons-/-Minus-/-Stroke-/-Normal" stroke="none" stroke-width="1" fill="none" fill-rule="evenodd">
        <g>
            <rect id="Bounds" x="0" y="0" width="24" height="24"></rect>
            <path d="M3.62857143,3.62857143 C8.22857143,-1 15.7714286,-1 20.4,3.62857143 C25.0285714,8.25714286 25.0285714,15.7714286 20.4,20.4 C15.7714286,25.0285714 8.25714286,25.0285714 3.62857143,20.4 C-1,15.7714286 -1,8.25714286 3.62857143,3.62857143 Z M19,19 C22.8571429,15.1428571 22.8571429,8.85714286 19,5 C15.1428571,1.14285714 8.85714286,1.14285714 5,5 C1.14285714,8.85714286 1.14285714,15.1428571 5,19 C8.85714286,22.8571429 15.1428571,22.8571429 19,19 Z M17.6571429,12.0285714 C17.6571429,12.5714286 17.2285714,13 16.6857143,13 L12.9714286,13 L11.0285714,13 L7.31428571,13 C7.05714286,13 6.8,12.8857143 6.62857143,12.7142857 C6.45714286,12.5428571 6.34285714,12.2857143 6.34285714,12.0285714 C6.34285714,11.4857143 6.77142857,11.0571429 7.31428571,11.0571429 L11.0285714,11.0571429 L12.9714286,11.0571429 L16.6857143,11.0571429 C17.2285714,11.0571429 17.6571429,11.4857143 17.6571429,12.0285714 Z" id="Icon" fill="#BABDC3"></path>
        </g>
    </g>
</svg>