<?xml version="1.0" encoding="UTF-8"?>
<svg width="80px" height="111px" viewBox="0 0 80 111" version="1.1" xmlns="http://www.w3.org/2000/svg" xmlns:xlink="http://www.w3.org/1999/xlink">
    <!-- Generator: Sketch 52.5 (67469) - http://www.bohemiancoding.com/sketch -->
    <title>Icons / Shoebox / Blue</title>
    <desc>Created with Sketch.</desc>
    <g id="Icons-/-Shoebox-/-Blue" stroke="none" stroke-width="1" fill="none" fill-rule="evenodd">
        <path d="M39.8666667,0.387096774 C24.5626259,0.387096774 12.1333675,12.7912645 12.1333333,28.0645161 C12.1332437,43.3377677 24.5625406,55.7419355 39.8666667,55.7419355 C55.1707925,55.7419355 67.6000875,43.3377677 67.6,28.0645161 C67.5999659,12.7912645 55.1707072,0.387096774 39.8666667,0.387096774 Z M39.8666667,2.51612903 C54.0178325,2.51612903 65.4666347,13.9417935 65.4666667,28.0645161 C65.4667477,42.1872387 54.0179115,53.6129032 39.8666667,53.6129032 C25.7154195,53.6129032 14.2665856,42.1872387 14.2666667,28.0645161 C14.2666987,13.9417935 25.7155006,2.51612903 39.8666667,2.51612903 Z M39.8666667,15.2903226 C32.784787,15.2903226 27.0666667,20.9969806 27.0666667,28.0645161 C27.0666667,35.1322645 32.784787,40.8387097 39.8666667,40.8387097 C46.9485461,40.8387097 52.6666667,35.1322645 52.6666667,28.0645161 C52.6666667,20.9969806 46.9485461,15.2903226 39.8666667,15.2903226 Z M46.5791659,21.9892885 L48.0916672,23.4945825 L36.6666667,34.8923886 L31.6458334,29.8816792 L33.1583334,28.3763853 L36.6666667,31.877647 L46.5791659,21.9892885 Z M78.5185185,72 C79.3377778,72 80,72.672 80,73.5 L80,82.5 C80,83.328 79.3377778,84 78.5185185,84 L77.037037,84 L77.037037,109.5 C77.037037,110.328 76.3748148,111 75.5555556,111 L4.44444444,111 C3.62518519,111 2.96296296,110.328 2.96296296,109.5 L2.96296296,84 L1.48148148,84 C0.662222222,84 0,83.328 0,82.5 L0,73.5 C0,72.672 0.662222222,72 1.48148148,72 L78.5185185,72 Z M77.037037,81 L77.037037,75 L2.96296296,75 L2.96296296,81 L4.44444444,81 L75.5555556,81 L77.037037,81 Z M51.8518519,105 L69.6296296,105 C70.4488889,105 71.1111111,104.328 71.1111111,103.5 C71.1111111,102.672 70.4488889,102 69.6296296,102 L51.8518519,102 C51.0325926,102 50.3703704,102.672 50.3703704,103.5 C50.3703704,104.328 51.0325926,105 51.8518519,105 Z" fill="#28C5F0" fill-rule="nonzero"></path>
    </g>
</svg>