<?xml version="1.0" encoding="UTF-8"?>
<svg width="100px" height="100px" viewBox="0 0 100 100" version="1.1" xmlns="http://www.w3.org/2000/svg" xmlns:xlink="http://www.w3.org/1999/xlink">
    <!-- Generator: Sketch 52.5 (67469) - http://www.bohemiancoding.com/sketch -->
    <title>Images / Avatar / Round / Empty + Icon</title>
    <desc>Created with Sketch.</desc>
    <g id="Images-/-Avatar-/-Round-/-Empty-+-Icon" stroke="none" stroke-width="1" fill="none" fill-rule="evenodd">
        <g>
            <circle id="Round" fill="#D0D2D6" cx="50" cy="50" r="50"></circle>
            <g id="Icons-/-Camera-/-White" opacity="0.8" transform="translate(34.000000, 34.000000)">
                <g>
                    <rect id="Bounds" x="0" y="0" width="32" height="32"></rect>
                    <path d="M28.0294427,6.26237624 C30.2166141,6.26237624 31.9663512,8.06435644 32,10.2821782 L32,25.9455446 C32,28.1980198 30.2166141,30 28.0630915,30 L3.93690852,30 C1.74973712,30 -1.82964754e-13,28.1633663 -1.82964754e-13,25.9455446 L-1.82964754e-13,10.2821782 C-1.82964754e-13,8.06435644 1.74973712,6.26237624 3.93690852,6.26237624 L8.88328076,6.26237624 L10.3974763,3.14356436 C10.7339642,2.45049505 11.4405889,2 12.214511,2 L19.7518402,2 C20.5257624,2 21.232387,2.45049505 21.5688749,3.14356436 L23.0830705,6.26237624 L28.0294427,6.26237624 Z M15.9831756,25.460396 C20.2229232,25.460396 23.6550999,21.960396 23.6550999,17.5940594 C23.6550999,13.2277228 20.2229232,9.69306931 15.9831756,9.69306931 C11.743428,9.69306931 8.31125131,13.1930693 8.31125131,17.5594059 C8.31125131,21.9257426 11.743428,25.460396 15.9831756,25.460396 Z M15.9831756,12.1881188 C18.8433228,12.1881188 21.1987382,14.6138614 21.1987382,17.5594059 C21.1987382,20.5049505 18.8433228,22.9306931 15.9831756,22.9306931 C13.1230284,22.9306931 10.767613,20.5049505 10.767613,17.5594059 C10.767613,14.6138614 13.1230284,12.1881188 15.9831756,12.1881188 Z" id="Icon" fill="#FFFFFF"></path>
                </g>
            </g>
        </g>
    </g>
</svg>