<?xml version="1.0" encoding="UTF-8"?>
<svg width="24px" height="24px" viewBox="0 0 24 24" version="1.1" xmlns="http://www.w3.org/2000/svg" xmlns:xlink="http://www.w3.org/1999/xlink">
    <!-- Generator: Sketch 52.5 (67469) - http://www.bohemiancoding.com/sketch -->
    <title>Icons / Favorite / Normal</title>
    <desc>Created with Sketch.</desc>
    <g id="Icons-/-Favorite-/-Normal" stroke="none" stroke-width="1" fill="none" fill-rule="evenodd">
        <g>
            <rect id="Bounds" x="0" y="0" width="24" height="24"></rect>
            <path d="M11.6763894,21.8940476 C11.868296,22.0353175 12.1316983,22.0353175 12.3236049,21.8940476 C13.6726301,20.9072296 18.9082824,16.9398773 21.7009817,12.8388545 C23.3263806,10.4519719 23.5375219,7.46700213 21.697953,5.24343736 C20.6021105,3.9008983 18.9740101,3.0862854 17.2271025,3.006467 C15.480195,2.92664861 13.7825378,3.58930347 12.5652455,4.8261525 L12.0648531,5.33019522 C12.0477872,5.34738814 12.0244073,5.35707974 11.9999971,5.35707974 C11.975587,5.35707974 11.952207,5.34738814 11.9351411,5.33019522 L11.4347341,4.8261525 C10.2174472,3.58930062 8.5197922,2.92664344 6.77288639,3.00646193 C5.02598058,3.08628042 3.39788267,3.90089575 2.30204614,5.24343736 C0.462464994,7.46700213 0.67363075,10.4519719 2.29902725,12.8388545 C5.09171185,16.9398773 10.3273642,20.9072296 11.6763894,21.8940476 Z" id="Icon" fill="#BABDC3"></path>
        </g>
    </g>
</svg>