<?xml version="1.0" encoding="UTF-8"?>
<svg width="35px" height="30px" viewBox="0 0 35 30" version="1.1" xmlns="http://www.w3.org/2000/svg" xmlns:xlink="http://www.w3.org/1999/xlink">
    <!-- Generator: Sketch 52.5 (67469) - http://www.bohemiancoding.com/sketch -->
    <title>Logo / Dark</title>
    <desc>Created with Sketch.</desc>
    <g id="Logo-/-Dark" stroke="none" stroke-width="1" fill="none" fill-rule="evenodd">
        <g fill="#191E28" id="Logo">
            <path d="M7.85076471,15.4921765 C11.6413529,15.4921765 14.7172353,18.5415882 14.7172353,22.3004118 C14.7172353,26.061 11.6413529,29.1104118 7.85076471,29.1104118 C4.06017647,29.1104118 0.984294118,26.061 0.984294118,22.3004118 C0.984294118,18.5415882 4.06017647,15.4921765 7.85076471,15.4921765 Z M7.85076471,18.7021765 C5.84958824,18.7021765 4.22252941,20.3168824 4.22252941,22.3004118 C4.22252941,24.2839412 5.84958824,25.8986471 7.85076471,25.8986471 C9.85194118,25.8986471 11.479,24.2839412 11.479,22.3004118 C11.479,20.3168824 9.85194118,18.7021765 7.85076471,18.7021765 Z M27.2263529,15.4904118 C30.5951765,15.4904118 33.5351765,17.9521765 34.0187059,21.3545294 C34.5428235,25.0798235 31.9257647,28.5227647 28.1722353,29.0451176 C27.8492941,29.0892353 27.5281176,29.1121765 27.2087059,29.1121765 C23.8416471,29.1121765 20.9016471,26.6504118 20.4198824,23.2480588 C19.894,19.5227647 22.5092941,16.0798235 26.2645882,15.5574706 C26.5892941,15.5133529 26.9087059,15.4904118 27.2263529,15.4904118 Z M27.2281176,18.7021765 C27.0569412,18.7021765 26.8857647,18.7145294 26.7145882,18.7392353 C25.7545882,18.8715882 24.9057647,19.3674706 24.3216471,20.1351176 C23.7375294,20.901 23.4922353,21.8504118 23.6263529,22.8015882 C23.8769412,24.5680588 25.4175294,25.8986471 27.2087059,25.8986471 C27.3798824,25.8986471 27.5528235,25.8898235 27.7222353,25.8651176 C28.6822353,25.731 29.5328235,25.2333529 30.1151765,24.4674706 C30.6992941,23.6998235 30.9445882,22.7521765 30.8104706,21.801 C30.5616471,20.0345294 29.0210588,18.7021765 27.2281176,18.7021765 Z M24.3569412,6.81 C24.3569412,10.5705882 21.2845882,13.6182353 17.4904706,13.6182353 C13.6998824,13.6182353 10.6275294,10.5705882 10.6275294,6.81 C10.6275294,3.04941176 13.6998824,-1.77635684e-15 17.4904706,-1.77635684e-15 C21.2845882,-1.77635684e-15 24.3569412,3.04941176 24.3569412,6.81 Z"></path>
        </g>
    </g>
</svg>