<?xml version="1.0" encoding="UTF-8"?>
<svg width="80px" height="68px" viewBox="0 0 80 68" version="1.1" xmlns="http://www.w3.org/2000/svg" xmlns:xlink="http://www.w3.org/1999/xlink">
    <!-- Generator: Sketch 52.5 (67469) - http://www.bohemiancoding.com/sketch -->
    <title>Icons / Money / Blue</title>
    <desc>Created with Sketch.</desc>
    <g id="Icons-/-Money-/-Blue" stroke="none" stroke-width="1" fill="none" fill-rule="evenodd">
        <path d="M19.6211765,44.4524918 L38.9811765,44.4524918 L38.9811765,47.0790754 L19.6211765,47.0790754 L19.6211765,44.4524918 Z M59.8117647,17.0231869 L59.8117647,17.0208459 L17.1294118,17.0208459 C11.5482353,17.0208459 7.00705882,21.5389443 7.00705882,27.0894164 L7.00705882,42.5141574 L0.550588235,18.5424852 C-0.105882353,16.0938164 1.35058824,13.577259 3.81411765,12.9241246 L50.5764706,0.458386885 C53.0376471,-0.197088525 55.5647059,1.25432131 56.2235294,3.70064918 L59.8117647,17.0231869 Z M19.6211765,49.4130361 L34.2870588,49.4130361 L34.2870588,52.0396197 L19.6211765,52.0396197 L19.6211765,49.4130361 Z M67.5294118,43.6706033 C74.2,43.6706033 79.6070588,49.0478426 79.6070588,55.6868721 C79.6070588,62.3188787 74.2,67.7008 67.5294118,67.7008 C60.8635294,67.7008 55.4564706,62.3188787 55.4564706,55.6868721 C55.4564706,49.0478426 60.8635294,43.6706033 67.5294118,43.6706033 Z M73.56,61.1624328 L73.5576471,61.1624328 L73.5576471,55.6330295 C73.5576471,54.7200459 72.9623529,53.9522033 72.1411765,53.6666033 L72.1411765,50.7239869 C72.1411765,49.2889639 70.9694118,48.1208131 69.5270588,48.1208131 L65.5317647,48.1208131 C64.0894118,48.1208131 62.9152941,49.2889639 62.9152941,50.7239869 L62.9152941,53.6666033 C62.0964706,53.9522033 61.5058824,54.7200459 61.5058824,55.6330295 L61.5058824,61.1624328 C61.5058824,62.3188787 62.4447059,63.2529311 63.6047059,63.2529311 L71.4588235,63.2529311 C72.6188235,63.2529311 73.56,62.3165377 73.56,61.1624328 Z M17.1294118,56.417259 L52.8494118,56.417259 C52.9270588,57.9506033 53.2376471,59.420741 53.7552941,60.7948984 L17.1294118,60.7948984 C13.4870588,60.7948984 10.5270588,57.849941 10.5270588,54.2260984 L10.5270588,27.0917574 C10.5270588,23.4702557 13.4870588,20.5276393 17.1294118,20.5276393 L63.3247059,20.5276393 C66.9623529,20.5276393 69.9223529,23.4702557 69.9223529,27.0917574 L69.9223529,41.2570492 C69.1435294,41.1282951 68.3482353,41.0463607 67.5294118,41.0463607 C66.8447059,41.0463607 66.1788235,41.1072262 65.52,41.1985246 L65.52,37.0877574 L14.9294118,37.0877574 L14.9294118,54.2260984 C14.9294118,55.4363869 15.9129412,56.417259 17.1294118,56.417259 Z M14.9317647,27.0894164 L14.9317647,28.4705967 L65.5247059,28.4705967 L65.5247059,27.0894164 C65.5247059,25.8814689 64.5411765,24.9005967 63.3270588,24.9005967 L17.1317647,24.9005967 C15.9152941,24.9005967 14.9317647,25.8814689 14.9317647,27.0894164 Z M69.5294118,49.5113574 C70.2,49.5113574 70.7458824,50.0568066 70.7458824,50.7239869 L70.7458824,53.5448721 L64.3129412,53.5448721 L64.3129412,50.7239869 C64.3129412,50.0544656 64.8611765,49.5113574 65.5341176,49.5113574 L69.5294118,49.5113574 Z" fill="#28C5F0"></path>
    </g>
</svg>