<?xml version="1.0" encoding="UTF-8"?>
<svg width="24px" height="24px" viewBox="0 0 24 24" version="1.1" xmlns="http://www.w3.org/2000/svg" xmlns:xlink="http://www.w3.org/1999/xlink">
    <!-- Generator: Sketch 52.5 (67469) - http://www.bohemiancoding.com/sketch -->
    <title>Icons / Pin / Normal</title>
    <desc>Created with Sketch.</desc>
    <g id="Icons-/-Pin-/-Normal" stroke="none" stroke-width="1" fill="none" fill-rule="evenodd">
        <g>
            <rect id="Bounds" x="0" y="0" width="24" height="24"></rect>
            <path d="M12,1 C9.8782677,0.999998762 7.84343568,1.84133152 6.34314438,3.33891442 C4.84285308,4.83649732 3.99999876,6.86765596 4,8.985558 C4,14.770981 11.257558,22 12,22 C12.742442,22 20,14.770981 20,8.985558 C20.0000012,6.86765596 19.1571469,4.83649732 17.6568556,3.33891442 C16.1565643,1.84133152 14.1217323,0.999998762 12,1 Z M12,12.4627707 C10.5910539,12.4627716 9.32084121,11.6155757 8.78166044,10.3162293 C8.24247967,9.01688291 8.5405133,7.52127018 9.53678865,6.52679336 C10.533064,5.53231654 12.0313816,5.23482093 13.3330779,5.77302834 C14.6347741,6.31123576 15.4835022,7.57915539 15.4835013,8.985558 C15.4835019,9.90777233 15.1164914,10.7922153 14.463208,11.4443193 C13.8099247,12.0964233 12.9238822,12.4627713 12,12.4627707 Z" id="Icon" fill="#BABDC3"></path>
        </g>
    </g>
</svg>