<?xml version="1.0" encoding="UTF-8"?>
<svg width="24px" height="24px" viewBox="0 0 24 24" version="1.1" xmlns="http://www.w3.org/2000/svg" xmlns:xlink="http://www.w3.org/1999/xlink">
    <!-- Generator: Sketch 52.5 (67469) - http://www.bohemiancoding.com/sketch -->
    <title>Icons / Add / Filled / Normal</title>
    <desc>Created with Sketch.</desc>
    <g id="Icons-/-Add-/-Filled-/-Normal" stroke="none" stroke-width="1" fill="none" fill-rule="evenodd">
        <g>
            <rect id="Bounds" x="0" y="0" width="24" height="24"></rect>
            <path d="M3.62857143,3.62857143 C8.22857143,-1 15.7714286,-1 20.4,3.62857143 C25.0285714,8.25714286 25.0285714,15.7714286 20.4,20.4 C15.7714286,25.0285714 8.25714286,25.0285714 3.62857143,20.4 C-1,15.7714286 -1,8.25714286 3.62857143,3.62857143 Z M12,6.37142857 C11.4571429,6.37142857 11.0285714,6.8 11.0285714,7.34285714 L11.0285714,11.0571429 L7.31428571,11.0571429 C6.77142857,11.0571429 6.34285714,11.4857143 6.34285714,12.0285714 C6.34285714,12.5714286 6.77142857,13 7.31428571,13 L11.0285714,13 L11.0285714,16.7142857 C11.0285714,17.2571429 11.4571429,17.6857143 12,17.6857143 C12.2571429,17.6857143 12.5142857,17.5714286 12.6857143,17.4 C12.8571429,17.2285714 12.9714286,16.9714286 12.9714286,16.7142857 L12.9714286,13 L16.6857143,13 C16.9428571,13 17.2,12.8857143 17.3714286,12.7142857 C17.5428571,12.5428571 17.6571429,12.2857143 17.6571429,12.0285714 C17.6571429,11.4857143 17.2285714,11.0571429 16.6857143,11.0571429 L12.9714286,11.0571429 L12.9714286,7.34285714 C12.9714286,6.8 12.5428571,6.37142857 12,6.37142857 Z" id="Icon" fill="#BABDC3"></path>
        </g>
    </g>
</svg>