<?xml version="1.0" encoding="UTF-8"?>
<svg width="40px" height="40px" viewBox="0 0 40 40" version="1.1" xmlns="http://www.w3.org/2000/svg" xmlns:xlink="http://www.w3.org/1999/xlink">
    <!-- Generator: Sketch 52.5 (67469) - http://www.bohemiancoding.com/sketch -->
    <title>Icons / Thumbs-Up + BG</title>
    <desc>Created with Sketch.</desc>
    <g id="Icons-/-Thumbs-Up-+-BG" stroke="none" stroke-width="1" fill="none" fill-rule="evenodd">
        <g>
            <circle id="Oval" fill-opacity="0.24" fill="#2CC874" cx="20" cy="20" r="20"></circle>
            <g id="Icons-/-Thumbs-Up-/-Green" transform="translate(8.000000, 8.000000)">
                <g>
                    <rect id="Bounds" x="0" y="0" width="24" height="24"></rect>
                    <path d="M23.9900749,10.7587638 C24.1394152,9.03040204 22.5636869,8.52606126 21.9384656,8.52606126 C19.514886,8.52554794 17.0905534,8.52631792 14.6667228,8.52400796 C15.0156018,7.74760549 15.4410334,5.68891979 14.9051652,2.85254831 C14.6935789,1.73119214 14.0465213,0.985332442 13.2222633,1.00021884 C12.5581382,1.01202529 11.9238812,1.53561572 11.8573683,2.18856378 C11.7845806,2.90644732 11.612149,3.92873197 11.4490042,4.62787919 C10.9269406,6.86289166 8.13465363,9.81373439 6.36892428,10.8432056 L6.36892428,21.7613493 C7.56665853,22.4535667 8.86554259,22.6958556 10.2527759,22.6689061 C12.4444388,22.6260435 18.7049345,22.6635162 19.8394187,22.6558163 C20.6423424,22.6504264 21.4430072,22.2587602 21.8280291,21.2675317 C22.3541085,19.9146664 20.9979982,19.2378488 20.9979982,19.2378488 C20.9979982,19.2378488 22.4826164,19.3127941 22.8219577,17.9509456 C23.1700838,16.5531645 21.8041848,16.000058 21.8041848,16.000058 C22.7278357,15.8968798 23.3191731,15.6509977 23.542807,14.7996499 C23.8055957,13.7968716 23.1748526,13.0438253 22.1764061,12.6080133 C22.3277543,12.5928702 23.8530332,12.3408282 23.9900749,10.7587638 Z M4.83159773,9.10817062 L0.752976269,9.10817062 C0.337082376,9.10817062 -1.27897692e-13,9.45286765 -1.27897692e-13,9.87815654 L-1.27897692e-13,22.2300141 C-1.27897692e-13,22.655303 0.337082376,23 0.752976269,23 L4.83159773,23 C5.24749162,23 5.584574,22.655303 5.584574,22.2300141 L5.584574,9.87815654 C5.584574,9.45312431 5.24774261,9.10817062 4.83159773,9.10817062 Z" id="Icon" fill="#2CC874"></path>
                </g>
            </g>
        </g>
    </g>
</svg>