<?xml version="1.0" encoding="UTF-8"?>
<svg width="124px" height="56px" viewBox="0 0 124 56" version="1.1" xmlns="http://www.w3.org/2000/svg" xmlns:xlink="http://www.w3.org/1999/xlink">
    <!-- Generator: Sketch 52.5 (67469) - http://www.bohemiancoding.com/sketch -->
    <title>Icons / Transport / Blue</title>
    <desc>Created with Sketch.</desc>
    <g id="Icons-/-Transport-/-Blue" stroke="none" stroke-width="1" fill="none" fill-rule="evenodd">
        <path d="M0,13.7738332 L7.60171808,13.7738332 L7.60171808,18.2790039 L0,18.2790039 L0,13.7738332 Z M0,41.2731779 L4.18009762,41.2731779 L4.18009762,45.7783487 L0,45.7783487 L0,41.2731779 Z M113.783678,6.87886298 L93.3833542,6.87886298 L93.3833542,0.0161071967 L3.11500977,0 L3.11500977,4.50517083 L23.7252284,4.50517083 L23.7252284,13.7416187 L10.0066693,13.7416187 L10.0066693,18.2306824 L23.7252284,18.2306824 L23.7252284,27.4671304 L10.0066693,27.4671304 L10.0066693,31.9561939 L23.7252284,31.9561939 L23.7252284,41.1926419 L6.55272941,41.1926419 L6.55272941,45.6817056 L37.4437876,45.6817056 C37.7182,51.414051 42.4632214,56 48.2572315,56 C54.0512418,56 58.7963842,51.4302793 59.0706755,45.6817056 L95.8042834,45.6817056 C96.0786958,51.414051 100.823717,56 106.617727,56 C112.411738,56 117.15688,51.4302793 117.431171,45.6817056 L124,45.6817056 L124,28.6298762 L113.783678,6.8791052 L113.783678,6.87886298 Z M103.680293,11.3516983 L110.700988,11.3516983 L118.109032,27.4670092 L103.680293,27.4670092 L103.680293,11.3516983 Z M48.2571105,51.494587 C44.6418157,51.494587 41.9303748,48.7656888 41.9303748,45.1647009 C41.9303748,41.5476057 44.6579149,38.8348147 48.2571105,38.8348147 C51.8563061,38.8348147 54.5838462,41.6121557 54.5838462,45.2776934 C54.5838462,48.8785603 51.9208239,51.4944659 48.2571105,51.4944659 L48.2571105,51.494587 Z M106.569309,51.494587 C102.954014,51.494587 100.242573,48.7656888 100.242573,45.1647009 C100.242573,41.5476057 102.970113,38.8348147 106.569309,38.8348147 C110.168504,38.8348147 112.896045,41.6121557 112.896045,45.2776934 C112.912144,48.8785603 110.249121,51.4944659 106.569309,51.4944659 L106.569309,51.494587 Z M119.480851,41.1762925 L116.640254,41.1762925 C115.026341,37.0586633 111.023698,34.329765 106.569188,34.329765 C102.130777,34.329765 98.1443538,37.0586633 96.4981218,41.1762925 L93.3509137,41.1762925 L93.3509137,11.3516983 L99.1611441,11.3516983 L99.1611441,31.9398445 L119.480851,31.9398445 L119.480851,41.1762925 Z" fill="#28C5F0" fill-rule="nonzero"></path>
    </g>
</svg>