<?xml version="1.0" encoding="UTF-8"?>
<svg width="82px" height="116px" viewBox="0 0 82 116" version="1.1" xmlns="http://www.w3.org/2000/svg" xmlns:xlink="http://www.w3.org/1999/xlink">
    <!-- Generator: Sketch 52.5 (67469) - http://www.bohemiancoding.com/sketch -->
    <title>Icons / Profile / Secondary</title>
    <desc>Created with Sketch.</desc>
    <g id="Icons-/-Profile-/-Secondary" stroke="none" stroke-width="1" fill="none" fill-rule="evenodd">
        <g fill="#28C5F0" id="Icon">
            <path d="M41,0.269767442 C18.3741935,0.269767442 0.0838709677,18.4790698 0.0838709677,41.0046512 C0.0838709677,51.6604651 4.28387097,61.5069767 11.0580645,68.7906977 C11.1935484,69.0604651 11.3290323,69.1953488 11.6,69.3302326 C19.0516129,77.0186047 29.483871,81.7395349 41,81.7395349 C63.6258065,81.7395349 81.916129,63.5302326 81.916129,41.0046512 C81.916129,18.4790698 63.6258065,0.269767442 41,0.269767442 Z M19.0516129,68.2511628 C28.5354839,65.0139535 32.3290323,61.1023256 33.9548387,58.2697674 C35.8516129,59.0790698 38.0193548,59.4837209 40.3225806,59.4837209 C40.3225806,59.4837209 40.4580645,59.4837209 40.4580645,59.4837209 C40.4580645,59.4837209 40.5935484,59.4837209 40.7290323,59.4837209 C40.7290323,59.4837209 40.8645161,59.4837209 40.8645161,59.4837209 C43.4387097,59.4837209 45.7419355,58.944186 47.7741935,58.1348837 C49.2645161,60.9674419 53.1935484,65.0139535 62.8129032,68.2511628 C56.8516129,73.1069767 49.1290323,75.9395349 40.8645161,75.9395349 C32.7354839,75.9395349 25.0129032,73.1069767 19.0516129,68.2511628 Z M48.8580645,50.4465116 C46.8258065,52.6046512 44.2516129,53.6837209 40.7290323,53.8186047 C40.7290323,53.8186047 40.5935484,53.8186047 40.5935484,53.8186047 C37.0709677,53.8186047 34.4967742,52.7395349 32.4645161,50.4465116 C27.316129,44.7813953 28.5354839,33.7209302 28.5354839,33.5860465 C28.5354839,33.5860465 28.5354839,33.4511628 28.5354839,33.4511628 C29.0774194,22.1209302 36.9354839,20.9069767 40.3225806,20.9069767 C40.4580645,20.9069767 40.4580645,20.9069767 40.5935484,20.9069767 C40.7290323,20.9069767 40.7290323,20.9069767 40.8645161,20.9069767 C40.8645161,20.9069767 41,20.9069767 41.1354839,20.9069767 C44.5225806,20.9069767 52.3806452,22.1209302 52.9225806,33.4511628 C52.9225806,33.4511628 52.9225806,33.5860465 52.9225806,33.5860465 C52.7870968,33.7209302 54.0064516,44.7813953 48.8580645,50.4465116 Z M67.6903226,63.8 C55.0903226,60.0232558 53.0580645,55.7069767 52.7870968,54.7627907 C52.9225806,54.627907 53.0580645,54.3581395 53.3290323,54.2232558 C59.8322581,46.8046512 58.883871,34.3953488 58.7483871,33.0465116 C58.0709677,19.827907 48.8580645,15.1069767 41.2709677,15.1069767 C41.1354839,15.1069767 41,15.1069767 40.8645161,15.1069767 C40.7290323,15.1069767 40.5935484,15.1069767 40.4580645,15.1069767 C32.7354839,15.1069767 23.5225806,19.827907 22.9806452,33.0465116 C22.8451613,34.3953488 21.7612903,46.8046512 28.4,54.2232558 C28.6709677,54.627907 29.0774194,54.8976744 29.3483871,55.1674419 C28.6709677,56.5162791 25.8258065,60.2930233 14.5806452,63.6651163 C9.02580645,57.5953488 5.77419355,49.6372093 5.77419355,41.0046512 C5.77419355,21.7162791 21.4903226,5.93488372 41,5.93488372 C60.3741935,5.93488372 76.2258065,21.5813953 76.2258065,41.0046512 C76.2258065,49.6372093 72.9741935,57.5953488 67.6903226,63.8 Z M73.3806452,96.7116279 C73.3806452,98.3302326 72.0258065,99.544186 70.5354839,99.544186 L11.6,99.544186 C9.97419355,99.544186 8.75483871,98.1953488 8.75483871,96.7116279 C8.75483871,95.0930233 10.1096774,93.8790698 11.6,93.8790698 L70.5354839,93.8790698 C72.0258065,93.8790698 73.3806452,95.0930233 73.3806452,96.7116279 Z M62.9483871,112.897674 C62.9483871,114.516279 61.5935484,115.730233 60.1032258,115.730233 L21.8967742,115.730233 C20.2709677,115.730233 19.0516129,114.381395 19.0516129,112.897674 C19.0516129,111.413953 20.4064516,110.065116 21.8967742,110.065116 L60.1032258,110.065116 C61.7290323,110.065116 62.9483871,111.27907 62.9483871,112.897674 Z"></path>
        </g>
    </g>
</svg>